<?xml version="1.0" encoding="iso-8859-1"?>
<!-- Generator: Adobe Illustrator 21.0.2, SVG Export Plug-In . SVG Version: 6.00 Build 0)  -->
<svg xmlns="http://www.w3.org/2000/svg" xmlns:xlink="http://www.w3.org/1999/xlink" version="1.1" id="Layer_1" x="0px" y="0px" viewBox="-8 -8 56 56" style="enable-background:new 0 0 40 40;" xml:space="preserve">
<circle cx="20" cy="20" r="28" stroke="#000000" fill="#125ade"/>
<g>
	
		<rect x="3.74" y="27.066" transform="matrix(0.7071 -0.7071 0.7071 0.7071 -18.3863 15.8156)" style="fill:#0087ff;" width="12.315" height="6.071"/>
	<path style="fill:#000000;" d="M12.106,24.308l3.586,3.586l-8.001,8.001l-3.586-3.586L12.106,24.308 M12.106,22.894l-9.415,9.415   l5,5l9.415-9.415L12.106,22.894L12.106,22.894z"/>
</g>
<g>
	<polygon style="fill:#52b1ff;" points="13.787,26.213 12.575,23.099 31.229,1.5 38.5,1.5 38.5,8.771 16.901,27.425  "/>
	<path style="fill:#000000;" d="M38,2v6.542L16.802,26.85l-2.628-1.024l-1.024-2.628L31.458,2H38 M39,1h-8L12,23l1.402,3.598L17,28   L39,9V1L39,1z"/>
</g>
<polygon style="fill:#0087ff;" points="16.804,26.851 38,8.54 38,2 14.174,25.826 "/>
<g>
	<path style="fill:#103d65;" d="M8.97,38.468c-0.402,0-0.778-0.155-1.061-0.438L1.97,32.091c-0.282-0.282-0.438-0.658-0.438-1.061   s0.155-0.778,0.438-1.061c0.282-0.282,0.658-0.438,1.061-0.438s0.778,0.155,1.061,0.438l5.939,5.939   c0.282,0.282,0.438,0.658,0.438,1.061s-0.155,0.778-0.438,1.061C9.748,38.313,9.372,38.468,8.97,38.468z"/>
	<g>
		<path style="fill:#000000;" d="M3.03,30.033c0.269,0,0.52,0.103,0.707,0.29l5.94,5.94c0.187,0.187,0.29,0.438,0.29,0.707    c0,0.269-0.103,0.52-0.29,0.707c-0.187,0.187-0.438,0.29-0.707,0.29s-0.52-0.103-0.707-0.29l-5.94-5.94    c-0.187-0.187-0.29-0.438-0.29-0.707c0-0.269,0.103-0.52,0.29-0.707C2.51,30.136,2.762,30.033,3.03,30.033 M3.03,29.033    c-0.513,0-1.025,0.194-1.414,0.583c-0.778,0.778-0.778,2.051,0,2.828l5.94,5.94c0.389,0.389,0.901,0.583,1.414,0.583    c0.513,0,1.025-0.195,1.414-0.583c0.778-0.778,0.778-2.051,0-2.828l-5.94-5.94C4.055,29.227,3.543,29.033,3.03,29.033L3.03,29.033    z"/>
	</g>
</g>
<g>
	<path style="fill:#103d65;" d="M18.95,32.447c-0.402,0-0.779-0.155-1.062-0.437l-9.899-9.899c-0.584-0.585-0.584-1.537,0-2.122   c0.282-0.281,0.659-0.437,1.061-0.437c0.402,0,0.779,0.155,1.062,0.437l9.899,9.899c0.584,0.585,0.584,1.537,0,2.122   C19.729,32.292,19.352,32.447,18.95,32.447z"/>
	<g>
		<path style="fill:#000000;" d="M9.05,20.053c0.269,0,0.52,0.103,0.707,0.29l9.899,9.899c0.187,0.187,0.29,0.438,0.29,0.707    s-0.103,0.52-0.29,0.707c-0.187,0.187-0.438,0.29-0.707,0.29c-0.269,0-0.52-0.103-0.707-0.29l-9.899-9.899    c-0.187-0.187-0.29-0.438-0.29-0.707s0.103-0.52,0.29-0.707C8.53,20.156,8.782,20.053,9.05,20.053 M9.05,19.053    c-0.513,0-1.025,0.194-1.414,0.583c-0.778,0.778-0.778,2.051,0,2.828l9.899,9.899c0.389,0.389,0.902,0.583,1.414,0.583    c0.513,0,1.025-0.194,1.414-0.583c0.778-0.778,0.778-2.051,0-2.828l-9.899-9.899C10.076,19.247,9.563,19.053,9.05,19.053    L9.05,19.053z"/>
	</g>
</g>
</svg>
